<svg width="31" height="31" viewBox="0 0 31 31" fill="none" xmlns="http://www.w3.org/2000/svg">
<path d="M15.4999 20.6667C18.3534 20.6667 20.6666 18.3535 20.6666 15.5C20.6666 12.6465 18.3534 10.3333 15.4999 10.3333C12.6464 10.3333 10.3333 12.6465 10.3333 15.5C10.3333 18.3535 12.6464 20.6667 15.4999 20.6667Z" stroke="#9E9E9E" stroke-width="2" stroke-linecap="round" stroke-linejoin="round"/>
<path d="M20.6666 10.3333V16.7917C20.6666 17.8194 21.0749 18.805 21.8016 19.5317C22.5283 20.2584 23.5139 20.6667 24.5416 20.6667C25.5693 20.6667 26.5549 20.2584 27.2816 19.5317C28.0083 18.805 28.4166 17.8194 28.4166 16.7917V15.5C28.4164 12.5847 27.4301 9.75528 25.6179 7.47169C23.8058 5.18809 21.2744 3.58467 18.4354 2.92214C15.5965 2.2596 12.6168 2.57693 9.98109 3.82252C7.34533 5.0681 5.20844 7.16869 3.91789 9.78273C2.62733 12.3968 2.25901 15.3705 2.87281 18.2204C3.48662 21.0703 5.04644 23.6288 7.29866 25.4798C9.55088 27.3308 12.363 28.3654 15.2779 28.4156C18.1927 28.4657 21.0387 27.5283 23.3533 25.7558" stroke="#9E9E9E" stroke-width="2" stroke-linecap="round" stroke-linejoin="round"/>
</svg>
