<svg width="50" height="50" viewBox="0 0 50 50" fill="none" xmlns="http://www.w3.org/2000/svg">
<path d="M24.8555 4C12.7803 3.99512 3 13.7705 3 25.8359C3 35.377 9.11816 43.4873 17.6387 46.4658C18.7861 46.7539 18.6104 45.9385 18.6104 45.3818V41.5977C11.9844 42.374 11.7158 37.9893 11.2715 37.2568C10.373 35.7236 8.24902 35.333 8.88379 34.6006C10.3926 33.8242 11.9307 34.7959 13.7129 37.4277C15.002 39.3369 17.5166 39.0146 18.791 38.6973C19.0693 37.5498 19.665 36.5244 20.4854 35.7285C13.6201 34.498 10.7588 30.3086 10.7588 25.3281C10.7588 22.9111 11.5547 20.6895 13.1172 18.8975C12.1211 15.9434 13.21 13.4141 13.3564 13.0381C16.1934 12.7842 19.1426 15.0693 19.3721 15.25C20.9834 14.8154 22.8242 14.5859 24.8848 14.5859C26.9551 14.5859 28.8008 14.8252 30.4268 15.2646C30.9785 14.8447 33.7129 12.8818 36.3496 13.1211C36.4912 13.4971 37.5557 15.9678 36.6182 18.8828C38.2002 20.6797 39.0059 22.9209 39.0059 25.3428C39.0059 30.333 36.125 34.5273 29.2402 35.7383C29.8299 36.3182 30.2982 37.0098 30.6176 37.7727C30.937 38.5357 31.1012 39.3546 31.1006 40.1816V45.6748C31.1396 46.1143 31.1006 46.5488 31.833 46.5488C40.4805 43.6338 46.7061 35.4648 46.7061 25.8408C46.7061 13.7705 36.9209 4 24.8555 4Z" fill="#EBEBEB"/>
</svg>
