<svg width="49" height="49" viewBox="0 0 49 49" fill="none" xmlns="http://www.w3.org/2000/svg">
<path d="M24.4809 3.65109C12.6472 3.64631 3.0625 13.2262 3.0625 25.0503C3.0625 34.4005 9.0583 42.3487 17.4084 45.2676C18.5329 45.5499 18.3606 44.7508 18.3606 44.2053V40.4968C11.8672 41.2576 11.604 36.9606 11.1686 36.2428C10.2881 34.7403 8.20654 34.3574 8.82861 33.6397C10.3072 32.8788 11.8146 33.8311 13.5611 36.4103C14.8244 38.2813 17.2888 37.9655 18.5377 37.6544C18.8104 36.5299 19.3942 35.525 20.1981 34.745C13.4702 33.5392 10.6661 29.4335 10.6661 24.5527C10.6661 22.184 11.4461 20.0068 12.9773 18.2506C12.0012 15.3556 13.0683 12.8769 13.2118 12.5084C15.992 12.2596 18.8822 14.499 19.1071 14.6761C20.6862 14.2502 22.4902 14.0253 24.5096 14.0253C26.5385 14.0253 28.3473 14.2598 29.9407 14.6904C30.4814 14.2789 33.1611 12.3553 35.7451 12.5898C35.8839 12.9582 36.9271 15.3795 36.0083 18.2363C37.5587 19.9972 38.3482 22.1936 38.3482 24.567C38.3482 29.4574 35.525 33.5679 28.7779 34.7546C29.3558 35.3229 29.8147 36.0007 30.1277 36.7484C30.4408 37.496 30.6017 38.2986 30.6011 39.1091V44.4924C30.6394 44.9231 30.6011 45.3489 31.3188 45.3489C39.7934 42.4922 45.8944 34.4866 45.8944 25.0551C45.8944 13.2262 36.305 3.65109 24.4809 3.65109Z" fill="#EBEBEB" fill-opacity="0.58"/>
</svg>
